<svg width="433" height="408" viewBox="0 0 433 408" fill="none" xmlns="http://www.w3.org/2000/svg" xmlns:xlink="http://www.w3.org/1999/xlink">
<defs>
<pattern id="pattern0" patternContentUnits="objectBoundingBox" width="1" height="1">
<use xlink:href="#image0" transform="scale(0.00230947 0.00245098)"/>
</pattern>
<image id="image0" width="433" height="408" xlink:href="./image/Floor.png"/>
</defs>
<rect width="433" height="408" fill="url(#pattern0)"/>
<path d="M388 81V141H314V148H267.5V131H247V32.5H338.5V16H405V81H388Z" fill="#3595F6" fill-opacity="0.75"/>
<path d="M314 148.5H268V200H367.5V205H387.5V141H314V148.5Z" fill="#3595F6" fill-opacity="0.75"/>
<path d="M314.192 252.662H268V200H367.916V204.602H388V268H314.192V252.662Z" fill="#3595F6" fill-opacity="0.75"/>
<path d="M314 253H268.5V309H295.5V376H340V393H405V328.5H388V268.5H314V253Z" fill="#3595F6" fill-opacity="0.75"/>
<path d="M218 394.5V264H247.5V273.5H267.5V310.5H294.5V375H259.5V394.5H218Z" fill="#3595F6" fill-opacity="0.75"/>
<path d="M217 394.5V264H187.5V273.5H167.5V310.5H140.5V375H175.5V394.5H217Z" fill="#3595F6" fill-opacity="0.75"/>
<path d="M121 252H166.5V309H139.5V376H95V393H30V328.5H47V273.5H121V252Z" fill="#3595F6" fill-opacity="0.75"/>
<path d="M119.5 273.5H46V198H167V250.822H119.5V273.5Z" fill="#3595F6" fill-opacity="0.75"/>
<path d="M124.729 116H46V198H167V145.178H124.729V116Z" fill="#3595F6" fill-opacity="0.75"/>
<path d="M46.5 81V115.5H125V144.5H164V131H184.5V32.5H93V16H28V81H46.5Z" fill="#3595F6" fill-opacity="0.75"/>

</svg>
